<svg xmlns="http://www.w3.org/2000/svg" viewBox="0 0 24 24" fill="currentColor"><path d="M21.33 12.91c.09-.36.14-.73.14-1.12 0-.67-.14-1.3-.38-1.88.13-.39.2-.79.2-1.21 0-1.17-.53-2.21-1.37-2.9.04-.23.06-.46.06-.7 0-2.19-1.76-3.97-3.95-4-.64-1.27-1.94-2.1-3.43-2.1-1.16 0-2.19.51-2.89 1.32A3.982 3.982 0 0 0 7.47 1C5.48 1 3.73 2.46 3.33 4.42 2.52 5.12 2 6.14 2 7.29c0 .42.07.82.2 1.21-.24.58-.38 1.21-.38 1.88 0 .39.05.76.14 1.12-.17.4-.26.83-.26 1.29 0 1.26.6 2.38 1.52 3.1-.04.2-.06.4-.06.61 0 2.07 1.58 3.77 3.6 3.97.5.91 1.47 1.53 2.58 1.53.65 0 1.25-.21 1.74-.56.44.32.97.5 1.53.5 1.06 0 1.98-.57 2.49-1.42 2.06-.16 3.7-1.87 3.7-3.97 0-.21-.02-.42-.06-.62.92-.72 1.52-1.84 1.52-3.1 0-.46-.09-.89-.26-1.29zM12 17c-2.76 0-5-2.24-5-5s2.24-5 5-5 5 2.24 5 5-2.24 5-5 5z"/></svg>
